<mxfile host="app.diagrams.net" modified="2023-10-29T04:25:17.220Z" agent="Mozilla/5.0 (Windows NT 10.0; Win64; x64) AppleWebKit/537.36 (KHTML, like Gecko) Chrome/118.0.0.0 Safari/537.36" version="22.0.0" etag="kGNbQTUY8Po9EPBd8zCV" type="github">
  <diagram name="Page-1" id="x40oEDqZNqdB3pjof8ZT">
    <mxGraphModel>
      <root>
        <mxCell id="0" />
        <mxCell id="1" parent="0" />
      </root>
    </mxGraphModel>
  </diagram>
</mxfile>
